<svg width="904" height="664" viewBox="0 0 904 664" fill="none" xmlns="http://www.w3.org/2000/svg">
<g filter="url(#filter0_d_2556_54)">
<path d="M196 118.3C196 106.15 205.85 96.2998 218 96.2998H679C691.15 96.2998 701 106.15 701 118.3V208C701 220.15 691.15 230 679 230H218C205.85 230 196 220.15 196 208V118.3Z" fill="#FCCE57"/>
</g>
<g filter="url(#filter1_di_2556_54)">
<path d="M196 112C196 99.8497 205.85 90 218 90H679C691.15 90 701 99.8497 701 112V201.7C701 213.85 691.15 223.7 679 223.7H218C205.85 223.7 196 213.85 196 201.7V112Z" fill="#FCCE57"/>
</g>
<g filter="url(#filter2_d_2556_54)">
<path d="M40 118.3C40 106.15 49.8497 96.2998 62 96.2998H158C170.15 96.2998 180 106.15 180 118.3V208C180 220.15 170.15 230 158 230H62C49.8497 230 40 220.15 40 208V118.3Z" fill="#12D092"/>
</g>
<g filter="url(#filter3_di_2556_54)">
<path d="M40 112C40 99.8497 49.8497 90 62 90H158C170.15 90 180 99.8497 180 112V201.7C180 213.85 170.15 223.7 158 223.7H62C49.8497 223.7 40 213.85 40 201.7V112Z" fill="#12D092"/>
</g>
<g filter="url(#filter4_d_2556_54)">
<path d="M352 290.3C352 278.15 361.85 268.3 374 268.3H470C482.15 268.3 492 278.15 492 290.3V380C492 392.15 482.15 402 470 402H374C361.85 402 352 392.15 352 380V290.3Z" fill="#FCCE57"/>
</g>
<g filter="url(#filter5_di_2556_54)">
<path d="M352 284C352 271.85 361.85 262 374 262H470C482.15 262 492 271.85 492 284V373.7C492 385.85 482.15 395.7 470 395.7H374C361.85 395.7 352 385.85 352 373.7V284Z" fill="#FCCE57"/>
</g>
<g filter="url(#filter6_d_2556_54)">
<path d="M40 290.3C40 278.15 49.8497 268.3 62 268.3H314C326.15 268.3 336 278.15 336 290.3V380C336 392.15 326.15 402 314 402H62C49.8497 402 40 392.15 40 380V290.3Z" fill="#2CA7FF"/>
</g>
<g filter="url(#filter7_di_2556_54)">
<path d="M40 284C40 271.85 49.8497 262 62 262H314C326.15 262 336 271.85 336 284V373.7C336 385.85 326.15 395.7 314 395.7H62C49.8497 395.7 40 385.85 40 373.7V284Z" fill="#2CA7FF"/>
</g>
<g filter="url(#filter8_d_2556_54)">
<path d="M508 290.3C508 278.15 517.85 268.3 530 268.3H842C854.15 268.3 864 278.15 864 290.3V380C864 392.15 854.15 402 842 402H530C517.85 402 508 392.15 508 380V290.3Z" fill="#12D092"/>
</g>
<g filter="url(#filter9_di_2556_54)">
<path d="M508 284C508 271.85 517.85 262 530 262H842C854.15 262 864 271.85 864 284V373.7C864 385.85 854.15 395.7 842 395.7H530C517.85 395.7 508 385.85 508 373.7V284Z" fill="#12D092"/>
</g>
<g filter="url(#filter10_d_2556_54)">
<path d="M283 462.3C283 450.15 292.85 440.3 305 440.3H749C761.15 440.3 771 450.15 771 462.3V552C771 564.15 761.15 574 749 574H305C292.85 574 283 564.15 283 552V462.3Z" fill="#2CA7FF"/>
</g>
<g filter="url(#filter11_di_2556_54)">
<path d="M283 456C283 443.85 292.85 434 305 434H749C761.15 434 771 443.85 771 456V545.7C771 557.85 761.15 567.7 749 567.7H305C292.85 567.7 283 557.85 283 545.7V456Z" fill="#2CA7FF"/>
</g>
<g filter="url(#filter12_d_2556_54)">
<path d="M40 462.3C40 450.15 49.8497 440.3 62 440.3H245C257.15 440.3 267 450.15 267 462.3V552C267 564.15 257.15 574 245 574H62C49.8497 574 40 564.15 40 552V462.3Z" fill="#8A51EE"/>
</g>
<g filter="url(#filter13_di_2556_54)">
<path d="M40 456C40 443.85 49.8497 434 62 434H245C257.15 434 267 443.85 267 456V545.7C267 557.85 257.15 567.7 245 567.7H62C49.8497 567.7 40 557.85 40 545.7V456Z" fill="#8A51EE"/>
</g>
<path d="M449.285 303.717C448.519 302.952 447.694 302.196 446.832 301.467L426.248 313.351L460.971 333.395C460.99 332.916 461 332.453 461 332.001C461 321.317 456.839 311.272 449.285 303.717Z" fill="#694E01"/>
<path d="M421 292C416.364 292 411.817 292.792 407.475 294.354V318.131L442.2 298.084C435.848 294.1 428.541 292 421 292Z" fill="#694E01"/>
<path d="M402.228 296.676C398.719 298.541 395.522 300.905 392.712 303.716C386.896 309.536 383.07 316.847 381.632 324.884L402.228 336.777V296.676Z" fill="#694E01"/>
<path d="M381.028 330.596C381.009 331.076 381 331.543 381 332C381 342.685 385.16 352.73 392.714 360.285C393.471 361.043 394.296 361.798 395.167 362.533L415.748 350.648L381.028 330.596Z" fill="#694E01"/>
<path d="M421 372C425.635 372 430.187 371.208 434.536 369.643V345.864L399.801 365.916C406.152 369.899 413.459 372 421 372Z" fill="#694E01"/>
<path d="M439.775 340.027H439.782V367.319C443.281 365.456 446.473 363.095 449.284 360.286C455.1 354.467 458.926 347.151 460.367 339.106L439.775 327.214V340.027Z" fill="#694E01"/>
<defs>
<filter id="filter0_d_2556_54" x="156" y="66.2998" width="585" height="213.7" filterUnits="userSpaceOnUse" color-interpolation-filters="sRGB">
<feFlood flood-opacity="0" result="BackgroundImageFix"/>
<feColorMatrix in="SourceAlpha" type="matrix" values="0 0 0 0 0 0 0 0 0 0 0 0 0 0 0 0 0 0 127 0" result="hardAlpha"/>
<feOffset dy="10"/>
<feGaussianBlur stdDeviation="20"/>
<feColorMatrix type="matrix" values="0 0 0 0 0 0 0 0 0 0 0 0 0 0 0 0 0 0 0.25 0"/>
<feBlend mode="normal" in2="BackgroundImageFix" result="effect1_dropShadow_2556_54"/>
<feBlend mode="normal" in="SourceGraphic" in2="effect1_dropShadow_2556_54" result="shape"/>
</filter>
<filter id="filter1_di_2556_54" x="192" y="90" width="513" height="143.7" filterUnits="userSpaceOnUse" color-interpolation-filters="sRGB">
<feFlood flood-opacity="0" result="BackgroundImageFix"/>
<feColorMatrix in="SourceAlpha" type="matrix" values="0 0 0 0 0 0 0 0 0 0 0 0 0 0 0 0 0 0 127 0" result="hardAlpha"/>
<feOffset dy="4"/>
<feGaussianBlur stdDeviation="2"/>
<feComposite in2="hardAlpha" operator="out"/>
<feColorMatrix type="matrix" values="0 0 0 0 0 0 0 0 0 0 0 0 0 0 0 0 0 0 0.25 0"/>
<feBlend mode="normal" in2="BackgroundImageFix" result="effect1_dropShadow_2556_54"/>
<feBlend mode="normal" in="SourceGraphic" in2="effect1_dropShadow_2556_54" result="shape"/>
<feColorMatrix in="SourceAlpha" type="matrix" values="0 0 0 0 0 0 0 0 0 0 0 0 0 0 0 0 0 0 127 0" result="hardAlpha"/>
<feOffset dy="10"/>
<feGaussianBlur stdDeviation="20"/>
<feComposite in2="hardAlpha" operator="arithmetic" k2="-1" k3="1"/>
<feColorMatrix type="matrix" values="0 0 0 0 0 0 0 0 0 0 0 0 0 0 0 0 0 0 0.01 0"/>
<feBlend mode="normal" in2="shape" result="effect2_innerShadow_2556_54"/>
</filter>
<filter id="filter2_d_2556_54" x="0" y="66.2998" width="220" height="213.7" filterUnits="userSpaceOnUse" color-interpolation-filters="sRGB">
<feFlood flood-opacity="0" result="BackgroundImageFix"/>
<feColorMatrix in="SourceAlpha" type="matrix" values="0 0 0 0 0 0 0 0 0 0 0 0 0 0 0 0 0 0 127 0" result="hardAlpha"/>
<feOffset dy="10"/>
<feGaussianBlur stdDeviation="20"/>
<feColorMatrix type="matrix" values="0 0 0 0 0 0 0 0 0 0 0 0 0 0 0 0 0 0 0.25 0"/>
<feBlend mode="normal" in2="BackgroundImageFix" result="effect1_dropShadow_2556_54"/>
<feBlend mode="normal" in="SourceGraphic" in2="effect1_dropShadow_2556_54" result="shape"/>
</filter>
<filter id="filter3_di_2556_54" x="36" y="90" width="148" height="143.7" filterUnits="userSpaceOnUse" color-interpolation-filters="sRGB">
<feFlood flood-opacity="0" result="BackgroundImageFix"/>
<feColorMatrix in="SourceAlpha" type="matrix" values="0 0 0 0 0 0 0 0 0 0 0 0 0 0 0 0 0 0 127 0" result="hardAlpha"/>
<feOffset dy="4"/>
<feGaussianBlur stdDeviation="2"/>
<feComposite in2="hardAlpha" operator="out"/>
<feColorMatrix type="matrix" values="0 0 0 0 0 0 0 0 0 0 0 0 0 0 0 0 0 0 0.25 0"/>
<feBlend mode="normal" in2="BackgroundImageFix" result="effect1_dropShadow_2556_54"/>
<feBlend mode="normal" in="SourceGraphic" in2="effect1_dropShadow_2556_54" result="shape"/>
<feColorMatrix in="SourceAlpha" type="matrix" values="0 0 0 0 0 0 0 0 0 0 0 0 0 0 0 0 0 0 127 0" result="hardAlpha"/>
<feOffset dy="10"/>
<feGaussianBlur stdDeviation="20"/>
<feComposite in2="hardAlpha" operator="arithmetic" k2="-1" k3="1"/>
<feColorMatrix type="matrix" values="0 0 0 0 0 0 0 0 0 0 0 0 0 0 0 0 0 0 0.01 0"/>
<feBlend mode="normal" in2="shape" result="effect2_innerShadow_2556_54"/>
</filter>
<filter id="filter4_d_2556_54" x="312" y="238.3" width="220" height="213.7" filterUnits="userSpaceOnUse" color-interpolation-filters="sRGB">
<feFlood flood-opacity="0" result="BackgroundImageFix"/>
<feColorMatrix in="SourceAlpha" type="matrix" values="0 0 0 0 0 0 0 0 0 0 0 0 0 0 0 0 0 0 127 0" result="hardAlpha"/>
<feOffset dy="10"/>
<feGaussianBlur stdDeviation="20"/>
<feColorMatrix type="matrix" values="0 0 0 0 0 0 0 0 0 0 0 0 0 0 0 0 0 0 0.25 0"/>
<feBlend mode="normal" in2="BackgroundImageFix" result="effect1_dropShadow_2556_54"/>
<feBlend mode="normal" in="SourceGraphic" in2="effect1_dropShadow_2556_54" result="shape"/>
</filter>
<filter id="filter5_di_2556_54" x="348" y="262" width="148" height="143.7" filterUnits="userSpaceOnUse" color-interpolation-filters="sRGB">
<feFlood flood-opacity="0" result="BackgroundImageFix"/>
<feColorMatrix in="SourceAlpha" type="matrix" values="0 0 0 0 0 0 0 0 0 0 0 0 0 0 0 0 0 0 127 0" result="hardAlpha"/>
<feOffset dy="4"/>
<feGaussianBlur stdDeviation="2"/>
<feComposite in2="hardAlpha" operator="out"/>
<feColorMatrix type="matrix" values="0 0 0 0 0 0 0 0 0 0 0 0 0 0 0 0 0 0 0.25 0"/>
<feBlend mode="normal" in2="BackgroundImageFix" result="effect1_dropShadow_2556_54"/>
<feBlend mode="normal" in="SourceGraphic" in2="effect1_dropShadow_2556_54" result="shape"/>
<feColorMatrix in="SourceAlpha" type="matrix" values="0 0 0 0 0 0 0 0 0 0 0 0 0 0 0 0 0 0 127 0" result="hardAlpha"/>
<feOffset dy="10"/>
<feGaussianBlur stdDeviation="20"/>
<feComposite in2="hardAlpha" operator="arithmetic" k2="-1" k3="1"/>
<feColorMatrix type="matrix" values="0 0 0 0 0 0 0 0 0 0 0 0 0 0 0 0 0 0 0.01 0"/>
<feBlend mode="normal" in2="shape" result="effect2_innerShadow_2556_54"/>
</filter>
<filter id="filter6_d_2556_54" x="0" y="238.3" width="376" height="213.7" filterUnits="userSpaceOnUse" color-interpolation-filters="sRGB">
<feFlood flood-opacity="0" result="BackgroundImageFix"/>
<feColorMatrix in="SourceAlpha" type="matrix" values="0 0 0 0 0 0 0 0 0 0 0 0 0 0 0 0 0 0 127 0" result="hardAlpha"/>
<feOffset dy="10"/>
<feGaussianBlur stdDeviation="20"/>
<feColorMatrix type="matrix" values="0 0 0 0 0 0 0 0 0 0 0 0 0 0 0 0 0 0 0.25 0"/>
<feBlend mode="normal" in2="BackgroundImageFix" result="effect1_dropShadow_2556_54"/>
<feBlend mode="normal" in="SourceGraphic" in2="effect1_dropShadow_2556_54" result="shape"/>
</filter>
<filter id="filter7_di_2556_54" x="36" y="262" width="304" height="143.7" filterUnits="userSpaceOnUse" color-interpolation-filters="sRGB">
<feFlood flood-opacity="0" result="BackgroundImageFix"/>
<feColorMatrix in="SourceAlpha" type="matrix" values="0 0 0 0 0 0 0 0 0 0 0 0 0 0 0 0 0 0 127 0" result="hardAlpha"/>
<feOffset dy="4"/>
<feGaussianBlur stdDeviation="2"/>
<feComposite in2="hardAlpha" operator="out"/>
<feColorMatrix type="matrix" values="0 0 0 0 0 0 0 0 0 0 0 0 0 0 0 0 0 0 0.25 0"/>
<feBlend mode="normal" in2="BackgroundImageFix" result="effect1_dropShadow_2556_54"/>
<feBlend mode="normal" in="SourceGraphic" in2="effect1_dropShadow_2556_54" result="shape"/>
<feColorMatrix in="SourceAlpha" type="matrix" values="0 0 0 0 0 0 0 0 0 0 0 0 0 0 0 0 0 0 127 0" result="hardAlpha"/>
<feOffset dy="10"/>
<feGaussianBlur stdDeviation="20"/>
<feComposite in2="hardAlpha" operator="arithmetic" k2="-1" k3="1"/>
<feColorMatrix type="matrix" values="0 0 0 0 0 0 0 0 0 0 0 0 0 0 0 0 0 0 0.01 0"/>
<feBlend mode="normal" in2="shape" result="effect2_innerShadow_2556_54"/>
</filter>
<filter id="filter8_d_2556_54" x="468" y="238.3" width="436" height="213.7" filterUnits="userSpaceOnUse" color-interpolation-filters="sRGB">
<feFlood flood-opacity="0" result="BackgroundImageFix"/>
<feColorMatrix in="SourceAlpha" type="matrix" values="0 0 0 0 0 0 0 0 0 0 0 0 0 0 0 0 0 0 127 0" result="hardAlpha"/>
<feOffset dy="10"/>
<feGaussianBlur stdDeviation="20"/>
<feColorMatrix type="matrix" values="0 0 0 0 0 0 0 0 0 0 0 0 0 0 0 0 0 0 0.25 0"/>
<feBlend mode="normal" in2="BackgroundImageFix" result="effect1_dropShadow_2556_54"/>
<feBlend mode="normal" in="SourceGraphic" in2="effect1_dropShadow_2556_54" result="shape"/>
</filter>
<filter id="filter9_di_2556_54" x="504" y="262" width="364" height="143.7" filterUnits="userSpaceOnUse" color-interpolation-filters="sRGB">
<feFlood flood-opacity="0" result="BackgroundImageFix"/>
<feColorMatrix in="SourceAlpha" type="matrix" values="0 0 0 0 0 0 0 0 0 0 0 0 0 0 0 0 0 0 127 0" result="hardAlpha"/>
<feOffset dy="4"/>
<feGaussianBlur stdDeviation="2"/>
<feComposite in2="hardAlpha" operator="out"/>
<feColorMatrix type="matrix" values="0 0 0 0 0 0 0 0 0 0 0 0 0 0 0 0 0 0 0.25 0"/>
<feBlend mode="normal" in2="BackgroundImageFix" result="effect1_dropShadow_2556_54"/>
<feBlend mode="normal" in="SourceGraphic" in2="effect1_dropShadow_2556_54" result="shape"/>
<feColorMatrix in="SourceAlpha" type="matrix" values="0 0 0 0 0 0 0 0 0 0 0 0 0 0 0 0 0 0 127 0" result="hardAlpha"/>
<feOffset dy="10"/>
<feGaussianBlur stdDeviation="20"/>
<feComposite in2="hardAlpha" operator="arithmetic" k2="-1" k3="1"/>
<feColorMatrix type="matrix" values="0 0 0 0 0 0 0 0 0 0 0 0 0 0 0 0 0 0 0.01 0"/>
<feBlend mode="normal" in2="shape" result="effect2_innerShadow_2556_54"/>
</filter>
<filter id="filter10_d_2556_54" x="243" y="410.3" width="568" height="213.7" filterUnits="userSpaceOnUse" color-interpolation-filters="sRGB">
<feFlood flood-opacity="0" result="BackgroundImageFix"/>
<feColorMatrix in="SourceAlpha" type="matrix" values="0 0 0 0 0 0 0 0 0 0 0 0 0 0 0 0 0 0 127 0" result="hardAlpha"/>
<feOffset dy="10"/>
<feGaussianBlur stdDeviation="20"/>
<feColorMatrix type="matrix" values="0 0 0 0 0 0 0 0 0 0 0 0 0 0 0 0 0 0 0.25 0"/>
<feBlend mode="normal" in2="BackgroundImageFix" result="effect1_dropShadow_2556_54"/>
<feBlend mode="normal" in="SourceGraphic" in2="effect1_dropShadow_2556_54" result="shape"/>
</filter>
<filter id="filter11_di_2556_54" x="279" y="434" width="496" height="143.7" filterUnits="userSpaceOnUse" color-interpolation-filters="sRGB">
<feFlood flood-opacity="0" result="BackgroundImageFix"/>
<feColorMatrix in="SourceAlpha" type="matrix" values="0 0 0 0 0 0 0 0 0 0 0 0 0 0 0 0 0 0 127 0" result="hardAlpha"/>
<feOffset dy="4"/>
<feGaussianBlur stdDeviation="2"/>
<feComposite in2="hardAlpha" operator="out"/>
<feColorMatrix type="matrix" values="0 0 0 0 0 0 0 0 0 0 0 0 0 0 0 0 0 0 0.25 0"/>
<feBlend mode="normal" in2="BackgroundImageFix" result="effect1_dropShadow_2556_54"/>
<feBlend mode="normal" in="SourceGraphic" in2="effect1_dropShadow_2556_54" result="shape"/>
<feColorMatrix in="SourceAlpha" type="matrix" values="0 0 0 0 0 0 0 0 0 0 0 0 0 0 0 0 0 0 127 0" result="hardAlpha"/>
<feOffset dy="10"/>
<feGaussianBlur stdDeviation="20"/>
<feComposite in2="hardAlpha" operator="arithmetic" k2="-1" k3="1"/>
<feColorMatrix type="matrix" values="0 0 0 0 0 0 0 0 0 0 0 0 0 0 0 0 0 0 0.01 0"/>
<feBlend mode="normal" in2="shape" result="effect2_innerShadow_2556_54"/>
</filter>
<filter id="filter12_d_2556_54" x="0" y="410.3" width="307" height="213.7" filterUnits="userSpaceOnUse" color-interpolation-filters="sRGB">
<feFlood flood-opacity="0" result="BackgroundImageFix"/>
<feColorMatrix in="SourceAlpha" type="matrix" values="0 0 0 0 0 0 0 0 0 0 0 0 0 0 0 0 0 0 127 0" result="hardAlpha"/>
<feOffset dy="10"/>
<feGaussianBlur stdDeviation="20"/>
<feColorMatrix type="matrix" values="0 0 0 0 0 0 0 0 0 0 0 0 0 0 0 0 0 0 0.25 0"/>
<feBlend mode="normal" in2="BackgroundImageFix" result="effect1_dropShadow_2556_54"/>
<feBlend mode="normal" in="SourceGraphic" in2="effect1_dropShadow_2556_54" result="shape"/>
</filter>
<filter id="filter13_di_2556_54" x="36" y="434" width="235" height="143.7" filterUnits="userSpaceOnUse" color-interpolation-filters="sRGB">
<feFlood flood-opacity="0" result="BackgroundImageFix"/>
<feColorMatrix in="SourceAlpha" type="matrix" values="0 0 0 0 0 0 0 0 0 0 0 0 0 0 0 0 0 0 127 0" result="hardAlpha"/>
<feOffset dy="4"/>
<feGaussianBlur stdDeviation="2"/>
<feComposite in2="hardAlpha" operator="out"/>
<feColorMatrix type="matrix" values="0 0 0 0 0 0 0 0 0 0 0 0 0 0 0 0 0 0 0.25 0"/>
<feBlend mode="normal" in2="BackgroundImageFix" result="effect1_dropShadow_2556_54"/>
<feBlend mode="normal" in="SourceGraphic" in2="effect1_dropShadow_2556_54" result="shape"/>
<feColorMatrix in="SourceAlpha" type="matrix" values="0 0 0 0 0 0 0 0 0 0 0 0 0 0 0 0 0 0 127 0" result="hardAlpha"/>
<feOffset dy="10"/>
<feGaussianBlur stdDeviation="20"/>
<feComposite in2="hardAlpha" operator="arithmetic" k2="-1" k3="1"/>
<feColorMatrix type="matrix" values="0 0 0 0 0 0 0 0 0 0 0 0 0 0 0 0 0 0 0.01 0"/>
<feBlend mode="normal" in2="shape" result="effect2_innerShadow_2556_54"/>
</filter>
</defs>
</svg>
